<svg width="200" height="200" viewBox="0 0 200 200" fill="none" xmlns="http://www.w3.org/2000/svg">
<circle cx="100" cy="100" r="100" fill="#FD6222"/>
<path d="M121.02 81.5735C122.464 83.3193 123.132 85.6305 123.078 87.8648C123.001 90.1036 122.27 92.3017 120.916 94.0203C119.576 95.7345 117.536 96.8788 115.397 96.8969C113.249 96.9421 111.191 95.8476 109.725 94.2012C108.244 92.5459 107.369 90.2935 107.346 88.0095C107.319 85.7209 108.159 83.4505 109.598 81.7635C111.033 80.081 113.055 78.9367 115.23 78.8688C117.396 78.7648 119.603 79.8232 121.02 81.5735ZM120.095 88.7693C120.406 88.4165 118.773 85.5264 115.713 85.3772C112.626 85.2279 110.397 88.9548 110.677 89.3347C110.907 89.6558 112.775 87.5572 115.614 87.6929C118.425 87.824 119.838 89.0633 120.095 88.7693Z" fill="white"/>
<path d="M107.003 64.5404C107.039 65.142 107.085 65.7435 107.139 66.3496C106.462 66.4491 105.789 66.5622 105.122 66.6843L102.843 67.0325C101.322 67.2406 99.81 67.5074 98.2801 67.6295C96.7503 67.7607 95.2115 67.8285 93.6771 67.7743C92.9099 67.7426 92.1428 67.7019 91.3801 67.6069C90.6671 67.521 89.9496 67.4079 89.2591 67.218C89.2275 66.8923 89.1959 66.5667 89.1598 66.241C89.0876 65.6169 89.0019 64.9927 88.9116 64.3686C89.566 64.5947 90.2429 64.744 90.9198 64.8661C91.696 65.0108 92.4812 65.0968 93.2664 65.1691C94.8414 65.2958 96.4209 65.2731 97.9958 65.1736L99.1782 65.0877L100.356 64.9565C101.141 64.8797 101.913 64.7123 102.689 64.5676C103.461 64.4002 104.223 64.1967 104.986 63.9977C105.645 63.7942 106.304 63.5816 106.954 63.3555C106.963 63.7535 106.981 64.147 107.003 64.5404Z" fill="white"/>
<path d="M82.4721 85.8024C82.7248 86.7387 82.8016 87.7246 82.6752 88.6699C82.612 89.1403 82.4766 89.6016 82.2826 90.0132C82.1021 90.3615 81.7726 90.6554 81.4568 90.9811C81.4252 91.0082 81.3981 91.0399 81.371 91.067C80.6806 91.7816 80.0262 92.5279 79.4079 93.2968C78.7852 94.0657 78.185 94.8572 77.6164 95.6668C77.3321 96.0602 77.0568 96.5035 76.777 96.7884C76.6371 96.9286 76.5198 96.9829 76.3257 97.01C76.1407 97.0417 75.9376 97.0236 75.73 96.9784C74.8861 96.7884 74.0919 96.1914 73.4059 95.5627C72.7155 94.9114 72.0972 94.1652 71.5783 93.3556C70.5403 91.7409 69.8589 89.8006 69.9853 87.8332C69.9943 87.7111 70.0033 87.589 70.0169 87.4668C70.2199 85.6396 71.0413 83.9074 72.1604 82.5008C72.7651 81.7545 73.4691 81.0942 74.2589 80.6012C75.0531 80.1037 75.9647 79.8549 76.8763 79.9092C77.7879 79.9725 78.6769 80.3796 79.4305 80.963C80.1932 81.5419 80.8295 82.2972 81.3439 83.1204C81.8494 83.9481 82.2284 84.8572 82.4721 85.8024ZM80.0172 88.1634C80.2022 87.7292 78.3971 85.9019 76.3347 86.015C74.0964 86.1371 72.4492 88.5116 72.7155 88.9142C72.9231 89.2262 74.1867 88.2086 76.6777 88.0412C78.7581 87.901 79.8818 88.48 80.0172 88.1634Z" fill="white"/>
<path d="M128.457 87.376C128.543 87.6745 128.61 87.973 128.669 88.276C128.597 87.9685 128.52 87.67 128.443 87.3805L128.457 87.376Z" fill="black"/>
<path d="M128.669 88.2764C128.592 87.9869 128.506 87.6929 128.416 87.3899L128.443 87.3809C128.52 87.6703 128.597 87.9688 128.669 88.2764Z" fill="black"/>
<path d="M128.669 88.2766C128.832 89.0907 128.89 89.9274 128.845 90.7596C128.823 91.2165 128.764 91.6778 128.674 92.1301C128.529 92.9261 128.263 93.7131 127.834 94.405C127.717 94.5724 127.609 94.7443 127.491 94.9116C127.351 95.0609 127.221 95.2192 127.081 95.3639C126.819 95.6714 126.471 95.8976 126.16 96.1373L126.128 96.1056C126.611 95.4634 127.108 94.8754 127.442 94.1789C127.798 93.5005 128.137 92.804 128.322 92.0487C128.516 91.2979 128.615 90.5199 128.624 89.7375C128.637 88.955 128.579 88.159 128.412 87.3901H128.416C128.507 87.6932 128.592 87.9872 128.669 88.2766Z" fill="black"/>
<path d="M126.782 150.538C126.047 151.175 125.216 151.709 124.318 152.107C124.427 152.053 124.535 151.994 124.639 151.931C124.932 151.759 125.216 151.578 125.487 151.379C125.938 151.135 126.372 150.854 126.782 150.538Z" fill="black"/>
<path d="M120.045 101.316C120.718 101.076 121.359 100.782 121.995 100.483C122.627 100.176 123.231 99.8276 123.832 99.416L123.863 99.4477C123.434 100.04 122.839 100.511 122.202 100.881C121.562 101.252 120.853 101.465 120.154 101.664C118.822 102.026 117.459 102.225 116.092 102.274C116.079 102.256 116.061 102.234 116.042 102.216C116.697 102.139 117.342 102.026 117.983 101.881C118.682 101.732 119.373 101.551 120.045 101.316Z" fill="black"/>
<path d="M115.713 85.3774C118.772 85.5267 120.406 88.4167 120.095 88.7695C119.837 89.0635 118.425 87.8243 115.613 87.6931C112.775 87.5574 110.907 89.656 110.677 89.3349C110.397 88.955 112.626 85.2282 115.713 85.3774Z" fill="black"/>
<path d="M116.042 102.216C116.06 102.234 116.078 102.257 116.092 102.275C116.015 102.279 115.938 102.284 115.861 102.284L115.857 102.238C115.92 102.234 115.979 102.225 116.042 102.216Z" fill="black"/>
<path d="M127.072 83.6994C126.607 82.6094 126.115 81.6235 125.627 80.7279C125.307 80.235 124.964 79.7013 124.535 79.1811C124.134 78.6972 123.777 78.1771 123.33 77.7338L122.685 77.0464L121.986 76.4222C121.033 75.6171 120.018 74.8754 118.872 74.3869C117.739 73.8804 116.525 73.5638 115.293 73.4598C113.294 73.2608 111.281 73.6361 109.377 74.31C109.851 74.0432 110.32 73.7583 110.776 73.4598C112.256 73.0617 113.79 72.8808 115.329 73.012C117.902 73.2427 120.361 74.4005 122.22 76.1599L122.911 76.8247L123.543 77.5439C123.98 78.0097 124.328 78.5479 124.716 79.0545C124.851 79.2309 125.239 79.8098 125.727 80.6646C125.984 81.1169 126.544 82.13 127.139 83.5502C127.545 84.5226 128.024 85.8071 128.443 87.381L128.416 87.3901C128.073 86.2413 127.631 84.9975 127.072 83.6994Z" fill="black"/>
<path d="M119.49 120.42C119.323 121.167 119.12 121.913 118.827 122.627C118.52 123.338 118.209 124.007 117.866 124.681C117.189 126.015 116.444 127.322 115.681 128.593C114.95 129.878 114.274 131.203 113.57 132.519L113.488 132.483C113.971 131.072 114.513 129.674 115.153 128.317C115.79 126.956 116.453 125.64 117.067 124.292C117.369 123.622 117.694 122.94 117.96 122.279C118.218 121.61 118.448 120.922 118.615 120.217C118.967 118.806 119.161 117.345 119.283 115.87C119.549 112.931 119.508 109.936 118.52 107.15C117.586 104.364 115.803 101.868 113.502 99.9952L113.556 99.9229C114.459 100.597 115.293 101.366 116.043 102.216C115.979 102.225 115.921 102.234 115.857 102.239L115.862 102.284C115.939 102.284 116.015 102.279 116.092 102.275C117.306 103.663 118.285 105.26 118.949 106.997C120.054 109.828 120.19 112.944 120.009 115.92C119.942 117.417 119.811 118.928 119.49 120.42Z" fill="black"/>
<path d="M132.505 102.343C132.64 103.966 132.586 105.613 132.302 107.227C132.035 108.847 131.512 110.407 130.898 111.918C130.591 112.673 130.257 113.41 129.874 114.147C129.481 114.871 129.034 115.558 128.561 116.228C127.771 117.336 126.904 118.363 126.038 119.38C126.029 119.385 126.024 119.394 126.02 119.398C125.605 119.833 125.185 120.267 124.765 120.705C124.544 120.936 124.386 121.18 124.283 121.429C123.642 122.18 122.992 122.935 122.328 123.672C121.791 124.278 121.227 124.862 120.717 125.459C120.203 126.056 119.716 126.698 119.233 127.331C117.292 129.864 115.564 132.573 114.242 135.468C113.912 136.192 113.614 136.933 113.371 137.675C113.258 138.028 113.172 138.435 113.073 138.81C112.992 139.199 112.901 139.588 112.834 139.977C112.572 141.533 112.45 143.121 112.631 144.681C112.834 146.223 113.316 147.756 114.237 149.018C115.14 150.28 116.399 151.334 117.802 151.994C119.224 152.623 120.884 152.686 122.441 152.465C123.506 152.284 124.535 151.913 125.487 151.379C125.217 151.578 124.932 151.759 124.639 151.931C124.535 151.994 124.427 152.053 124.319 152.107C123.732 152.365 123.118 152.569 122.486 152.7C121.688 152.872 120.866 152.908 120.05 152.89C119.233 152.863 118.407 152.704 117.631 152.401C117.247 152.252 116.868 152.062 116.525 151.832C116.187 151.601 115.821 151.402 115.514 151.126L115.031 150.733C114.873 150.601 114.738 150.443 114.589 150.298C114.287 150.013 114.034 149.683 113.777 149.358C112.757 148.032 112.197 146.404 111.94 144.771C111.705 143.125 111.796 141.461 112.066 139.842C112.134 139.439 112.22 139.036 112.301 138.634C112.405 138.231 112.477 137.851 112.608 137.431C112.861 136.639 113.159 135.88 113.492 135.133C114.824 132.148 116.561 129.376 118.515 126.78C119.016 126.142 119.513 125.5 120.05 124.88C120.591 124.256 121.155 123.686 121.692 123.093C122.775 121.909 123.813 120.687 124.878 119.471C125.939 118.259 126.995 117.056 127.929 115.771C128.394 115.129 128.822 114.464 129.215 113.781C129.594 113.094 129.946 112.37 130.262 111.646C130.898 110.185 131.449 108.679 131.742 107.123C132.058 105.568 132.148 103.966 132.067 102.374C131.923 99.1768 130.122 93.7222 128.858 90.7598C130.307 93.6408 132.211 99.0999 132.505 102.343Z" fill="black"/>
<path d="M109.932 44.2466C109.801 44.5858 109.679 44.9296 109.571 45.2733C109.49 45.3728 109.404 45.4633 109.314 45.5447C109.476 45.0924 109.657 44.6492 109.851 44.2104L109.932 44.2466Z" fill="black"/>
<path d="M108.023 74.8387C108.465 74.6488 108.917 74.4679 109.377 74.3096C108.082 75.0468 106.728 75.689 105.333 76.2272C106.2 75.7071 107.093 75.2368 108.023 74.8387Z" fill="black"/>
<path d="M107.757 43.8033C108.019 43.8711 108.271 43.948 108.492 44.0475C108.709 44.1334 108.89 44.2872 108.899 44.3189C108.903 44.3279 108.908 44.3053 108.899 44.3596C108.89 44.4048 108.84 44.4907 108.777 44.5767C108.646 44.7485 108.447 44.9249 108.24 45.0923C107.815 45.4179 107.324 45.7119 106.823 45.9787C105.816 46.517 104.747 46.9692 103.664 47.3808C101.493 48.1949 99.2457 48.8372 96.9668 49.294C95.8295 49.5292 94.6743 49.7191 93.519 49.8774C92.3637 50.0403 91.2039 50.1805 90.0351 50.2709C88.8708 50.3523 87.6975 50.4021 86.5332 50.3478C85.9511 50.3116 85.3644 50.2619 84.7958 50.1398C84.5115 50.0764 84.2317 49.995 83.97 49.8774C83.8842 49.8367 83.7985 49.7915 83.7218 49.7372C83.627 49.6106 83.5277 49.4885 83.4239 49.3664C83.4149 49.3528 83.4149 49.3392 83.4104 49.3256C83.3743 49.0678 83.5458 48.81 83.7218 48.5975C83.9113 48.3849 84.1324 48.1949 84.3581 48.0231C84.8229 47.6703 85.3283 47.3853 85.8428 47.114C86.8762 46.5803 87.9638 46.1551 89.0649 45.7797C90.166 45.4043 91.2852 45.0832 92.4089 44.8164C93.5325 44.536 94.6472 44.3008 95.7889 44.1244C98.0634 43.758 100.365 43.5183 102.671 43.4595C103.817 43.4233 104.972 43.4324 106.105 43.5409C106.669 43.5952 107.229 43.6766 107.757 43.8033Z" fill="#141414"/>
<path d="M123.078 87.8651C123.132 85.6308 122.464 83.3197 121.02 81.5739C119.603 79.8235 117.396 78.7652 115.23 78.8692C113.055 78.937 111.033 80.0813 109.598 81.7638C108.158 83.4508 107.319 85.7213 107.346 88.0099C107.369 90.2939 108.244 92.5463 109.724 94.2016C111.191 95.8479 113.249 96.9425 115.397 96.8972C117.536 96.8791 119.576 95.7349 120.916 94.0207C122.27 92.302 123.001 90.1039 123.078 87.8651ZM123.574 87.8606C123.673 90.1944 123.033 92.6186 121.588 94.5408C120.871 95.4952 119.964 96.3274 118.903 96.9244C117.847 97.5214 116.624 97.8516 115.401 97.8606C114.183 97.8561 112.96 97.544 111.904 96.956C110.839 96.3771 109.945 95.5313 109.26 94.5725C107.87 92.6412 107.292 90.2984 107.256 88.0099C107.26 85.7258 107.793 83.3694 109.151 81.4201C109.819 80.4477 110.699 79.5974 111.755 79.0139C112.802 78.4169 114.016 78.1003 115.225 78.1184C116.43 78.141 117.613 78.4938 118.637 79.0772C119.666 79.6652 120.537 80.4748 121.25 81.3929C122.672 83.2337 123.461 85.5223 123.574 87.8606Z" fill="black"/>
<path d="M107.956 69.1177C107.956 69.1222 107.956 69.1312 107.956 69.1358C107.874 69.1539 107.793 69.1674 107.712 69.181C107.793 69.1584 107.874 69.1403 107.956 69.1177Z" fill="black"/>
<path d="M107.003 64.5402C106.981 64.1467 106.963 63.7532 106.954 63.3552C107.049 63.3236 107.143 63.2919 107.234 63.2603L107.22 63.215C107.13 63.2331 107.044 63.2467 106.954 63.2648C106.904 61.3923 106.99 59.5154 107.112 57.6474C107.265 55.3589 107.473 53.0658 107.901 50.8044C108.249 49.0224 108.682 47.2449 109.314 45.5443C109.404 45.4629 109.49 45.3725 109.571 45.2729C108.976 47.0957 108.615 48.9817 108.348 50.8767C108.01 53.1291 107.897 55.4086 107.834 57.6791C107.766 59.9541 107.897 62.2336 107.906 64.5086C107.906 64.5854 107.906 64.6578 107.911 64.7347C107.924 66.1911 107.942 67.6519 107.956 69.1173C107.874 69.1399 107.793 69.158 107.712 69.1806C107.793 69.1671 107.874 69.1535 107.956 69.1354C107.96 69.8772 107.96 70.6189 107.96 71.3606L107.87 71.3697C107.518 69.7415 107.297 68.0952 107.148 66.4398C107.238 66.4127 107.324 66.3855 107.414 66.3584L107.405 66.3132C107.315 66.3267 107.229 66.3358 107.139 66.3493C107.085 65.7433 107.04 65.1418 107.003 64.5402Z" fill="black"/>
<path d="M107.374 140.71C106.733 137.399 106.85 133.984 107.302 130.692C107.414 129.846 107.59 129.041 107.735 128.227L108.164 125.784L108.98 120.886L109.359 118.439C109.477 117.616 109.567 116.834 109.558 116.006C109.576 114.369 109.445 112.727 109.165 111.108C108.642 107.869 107.342 104.767 105.501 102.026L105.573 101.976C106.575 103.297 107.423 104.74 108.109 106.259C108.804 107.774 109.319 109.38 109.635 111.022C109.96 112.659 110.131 114.332 110.154 116.006C110.181 116.838 110.109 117.706 110.009 118.525C109.914 119.353 109.788 120.176 109.666 120.995L108.895 125.906L108.488 128.362C108.353 129.181 108.186 130 108.087 130.796C107.906 132.428 107.73 134.066 107.717 135.698C107.699 137.331 107.812 138.968 108.109 140.569C108.75 143.763 109.535 147.055 111.476 149.678C112.455 150.963 113.723 152.039 115.226 152.659C116.729 153.279 118.385 153.514 120.005 153.387C121.508 153.256 122.988 152.826 124.319 152.107C125.217 151.709 126.048 151.175 126.783 150.538L126.792 150.547C126.779 150.565 126.765 150.588 126.747 150.606C126.476 150.927 126.174 151.23 125.831 151.488C125.493 151.736 125.141 151.962 124.78 152.175C123.326 152.998 121.706 153.545 120.032 153.699C118.362 153.848 116.657 153.618 115.091 153.003C114.693 152.858 114.323 152.65 113.944 152.46C113.755 152.369 113.588 152.238 113.407 152.125C113.231 152.008 113.046 151.904 112.884 151.763C112.202 151.257 111.62 150.637 111.079 149.986C110.036 148.652 109.278 147.123 108.71 145.545C108.425 144.753 108.177 143.953 107.96 143.147C107.748 142.342 107.527 141.542 107.374 140.71Z" fill="black"/>
<path d="M107.404 66.3135L107.413 66.3587C107.323 66.3858 107.237 66.413 107.147 66.4401C107.143 66.4085 107.143 66.3768 107.138 66.3497C107.228 66.3361 107.314 66.327 107.404 66.3135Z" fill="black"/>
<path d="M107.22 63.2153L107.233 63.2606C107.143 63.2922 107.048 63.3239 106.954 63.3555C106.954 63.3284 106.954 63.2967 106.954 63.2651C107.044 63.247 107.13 63.2334 107.22 63.2153Z" fill="black"/>
<path d="M104.368 76.5894C104.503 76.5441 104.634 76.4944 104.769 76.4446C104.959 76.3768 105.148 76.3044 105.333 76.2275C105.121 76.3542 104.909 76.4853 104.702 76.6165C103.632 77.2859 102.608 78.0276 101.642 78.8463C102.49 78.0231 103.402 77.2678 104.368 76.5894Z" fill="black"/>
<path d="M107.879 74.5274C108.808 74.0932 109.778 73.7268 110.776 73.46C110.32 73.7585 109.851 74.0434 109.377 74.3103C108.917 74.4686 108.465 74.6495 108.023 74.8394C107.093 75.2374 106.2 75.7078 105.333 76.2279C105.148 76.3048 104.959 76.3772 104.769 76.445C104.634 76.4948 104.503 76.5445 104.368 76.5898C105.473 75.7983 106.651 75.1108 107.879 74.5274Z" fill="black"/>
<path d="M104.354 153.283C105.464 154.093 106.651 154.834 107.96 155.3C108.601 155.558 109.237 155.784 109.878 156.024L110.356 156.205C110.514 156.264 110.69 156.318 110.808 156.39C110.857 156.422 110.889 156.449 110.907 156.476C109.291 156.146 107.716 155.599 106.254 154.812C100.387 151.451 96.2177 145.685 94.2366 139.326C94.3313 139.624 94.4306 139.918 94.5344 140.212C95.4866 142.808 96.7637 145.314 98.4741 147.498C99.318 148.593 100.252 149.615 101.236 150.574C102.211 151.546 103.244 152.465 104.354 153.283Z" fill="black"/>
<path d="M94.2004 139.226C94.2141 139.258 94.2233 139.295 94.237 139.327C94.2233 139.295 94.2096 139.263 94.2004 139.226Z" fill="black"/>
<path d="M93.501 115.712C93.7763 112.989 94.1598 110.28 94.6608 107.584L94.575 107.566C94.3719 108.371 94.1869 109.176 94.0109 109.99C94.038 109.828 94.0651 109.66 94.0922 109.497C94.6201 106.223 95.279 102.971 96.0236 99.7417L96.1094 99.7598C95.4866 103.012 94.9857 106.286 94.5434 109.565C94.1057 112.849 93.6544 116.132 93.325 119.416C93.2122 120.569 93.1219 121.723 93.0723 122.876C93.1084 121.849 93.1445 120.823 93.1941 119.8C93.2618 118.435 93.3656 117.073 93.501 115.712Z" fill="black"/>
<path d="M129.341 147.431C129.314 147.358 129.31 147.363 129.278 147.354C129.174 147.354 128.989 147.449 128.858 147.575C128.574 147.833 128.353 148.172 128.141 148.525C127.726 149.208 127.315 149.914 126.792 150.547L126.783 150.538C126.372 150.854 125.939 151.135 125.487 151.379C125.871 151.103 126.223 150.787 126.516 150.411C127.035 149.787 127.446 149.072 127.87 148.362C128.082 148.005 128.312 147.639 128.637 147.331C128.809 147.186 128.994 147.033 129.305 147.024C129.49 147.024 129.639 147.209 129.662 147.34C129.693 147.467 129.698 147.589 129.693 147.702C129.612 148.584 129.305 149.366 128.935 150.131C128.173 151.65 126.963 152.912 125.573 153.858C124.183 154.816 122.613 155.481 121.006 155.952C119.391 156.422 117.725 156.689 116.056 156.797C114.454 156.915 112.829 156.834 111.245 156.54C111.245 156.481 111.232 156.422 111.204 156.372C111.146 156.246 111.051 156.178 110.965 156.128C110.785 156.019 110.627 155.983 110.469 155.92L109.982 155.744C109.341 155.508 108.686 155.282 108.055 155.038C106.773 154.604 105.631 153.835 104.539 153.03C103.456 152.211 102.445 151.293 101.502 150.312C100.554 149.33 99.6698 148.299 98.8756 147.195C97.2645 145.006 96.1137 142.528 95.2383 139.963C94.3537 137.399 93.7671 134.73 93.388 132.044C93.018 129.357 92.9593 126.63 93.036 123.898C93.045 123.677 93.0541 123.455 93.0586 123.233C93.045 123.604 93.0405 123.971 93.036 124.341C93.018 125.983 93.1127 127.611 93.2707 129.258C93.573 132.537 94.0604 135.793 95.0803 138.905C95.5767 140.461 96.1724 141.985 96.9215 143.428C97.2645 144.17 97.7067 144.853 98.1084 145.563L98.7853 146.576L99.1238 147.082C99.2411 147.25 99.372 147.403 99.4938 147.566L100.243 148.525C100.505 148.837 100.784 149.131 101.055 149.434C101.592 150.04 102.183 150.633 102.766 151.189C103.943 152.306 105.239 153.292 106.656 154.061C109.485 155.608 112.775 156.259 116.015 156.083C117.644 156.001 119.264 155.771 120.839 155.359C122.41 154.938 123.94 154.337 125.298 153.446C126.656 152.564 127.834 151.384 128.592 149.954C128.958 149.244 129.274 148.453 129.355 147.684C129.364 147.589 129.355 147.503 129.341 147.431Z" fill="black"/>
<path d="M107.96 155.3C106.651 154.835 105.465 154.093 104.354 153.283C103.244 152.465 102.211 151.546 101.236 150.574C100.252 149.615 99.3182 148.593 98.4743 147.499C96.764 145.314 95.4868 142.808 94.5346 140.212C94.4309 139.918 94.3316 139.624 94.2368 139.326C94.2233 139.294 94.2142 139.258 94.2007 139.226C94.1962 139.217 94.1917 139.204 94.1917 139.19C93.6772 137.589 93.2981 135.952 93.0093 134.305C92.716 132.655 92.5219 130.995 92.4046 129.33C92.364 128.806 92.3279 128.276 92.3008 127.747C92.2692 126.454 92.2918 125.16 92.3459 123.876C92.4181 122.229 92.5174 120.579 92.6709 118.937C93.0319 115.934 93.5373 112.962 94.0112 109.991C94.1872 109.177 94.3722 108.371 94.5753 107.566L94.661 107.584C94.1601 110.28 93.7765 112.989 93.5012 115.712C93.3658 117.073 93.262 118.435 93.1944 119.801C93.1447 120.823 93.1086 121.85 93.0725 122.876C93.068 122.994 93.0635 123.116 93.059 123.234C93.0545 123.455 93.0454 123.677 93.0364 123.898C92.9597 126.63 93.0183 129.357 93.3884 132.044C93.7675 134.731 94.3541 137.399 95.2386 139.963C96.1141 142.528 97.2649 145.006 98.8759 147.195C99.6702 148.299 100.555 149.33 101.502 150.312C102.446 151.293 103.456 152.211 104.539 153.03C105.632 153.835 106.773 154.604 108.055 155.038C108.687 155.282 109.341 155.508 109.982 155.744L110.469 155.92C110.627 155.983 110.785 156.02 110.966 156.128C111.051 156.178 111.146 156.246 111.205 156.372C111.232 156.422 111.245 156.481 111.245 156.54C111.133 156.522 111.02 156.499 110.907 156.476C110.889 156.449 110.857 156.422 110.808 156.39C110.69 156.318 110.514 156.264 110.356 156.205L109.878 156.024C109.237 155.784 108.601 155.558 107.96 155.3Z" fill="black"/>
<path d="M94.0112 109.991C93.5373 112.962 93.0319 115.934 92.6709 118.937C92.7657 117.842 92.8875 116.748 93.0319 115.658C93.2846 113.754 93.6096 111.863 94.0112 109.991Z" fill="black"/>
<path d="M93.009 134.305C93.2979 135.951 93.6769 137.589 94.1914 139.19C93.871 138.213 93.5957 137.227 93.3565 136.232C93.0271 134.884 92.7699 133.523 92.6029 132.148C92.4224 130.687 92.3276 129.217 92.3005 127.747C92.3276 128.276 92.3637 128.805 92.4043 129.33C92.5217 130.994 92.7157 132.654 93.009 134.305Z" fill="black"/>
<path d="M92.6708 118.937C92.5174 120.578 92.4181 122.229 92.3459 123.875C92.2917 125.16 92.2692 126.453 92.3008 127.747C92.2376 126.607 92.215 125.463 92.2466 124.328C92.2872 122.654 92.4361 120.99 92.6212 119.339C92.6347 119.203 92.6528 119.072 92.6708 118.937Z" fill="black"/>
<path d="M105.185 66.9918C104.431 67.1637 103.673 67.3311 102.915 67.4803C101.394 67.7472 99.8508 67.9145 98.3029 67.9914C96.7595 68.0773 95.2116 68.1045 93.6683 68.0004C92.8966 67.9371 92.1249 67.8648 91.3622 67.7426C90.6537 67.6296 89.9497 67.4939 89.2638 67.2723C89.2638 67.2542 89.2593 67.2361 89.2593 67.218C89.9497 67.4079 90.6673 67.521 91.3803 67.607C92.1429 67.7019 92.9101 67.7426 93.6773 67.7743C95.2116 67.8286 96.7505 67.7607 98.2803 67.6296C99.8102 67.5075 101.322 67.2406 102.843 67.0326L105.122 66.6843C105.79 66.5622 106.462 66.4491 107.139 66.3496C107.143 66.3767 107.143 66.4084 107.148 66.4401C106.498 66.6391 105.839 66.8155 105.185 66.9918Z" fill="black"/>
<path d="M102.603 64.1245C103.375 64.0024 104.138 63.826 104.914 63.6948C105.591 63.5456 106.268 63.3963 106.954 63.2651C106.954 63.2968 106.954 63.3285 106.954 63.3556C106.304 63.5817 105.645 63.7943 104.986 63.9978C104.223 64.1968 103.461 64.4004 102.689 64.5677C101.913 64.7124 101.141 64.8798 100.356 64.9567L99.1782 65.0878L97.9958 65.1738C96.4209 65.2733 94.8414 65.2959 93.2664 65.1692C92.4812 65.0969 91.696 65.0109 90.9198 64.8662C90.2429 64.7441 89.566 64.5948 88.9116 64.3687C88.9071 64.3506 88.9026 64.328 88.9026 64.3099C89.5705 64.5089 90.2564 64.6356 90.9424 64.7305C91.7186 64.8481 92.4993 64.9024 93.28 64.9476C94.8459 65.0245 96.4119 64.9567 97.9688 64.8165L99.1331 64.6853L100.293 64.5134C100.681 64.4592 101.065 64.4004 101.448 64.3235L102.603 64.1245Z" fill="black"/>
<path d="M89.2597 67.218C89.2597 67.2362 89.2642 67.2544 89.2642 67.2725C89.2098 67.2589 89.1599 67.2407 89.1055 67.2225L89.1191 67.1816C89.1644 67.1953 89.2143 67.2089 89.2597 67.218Z" fill="black"/>
<path d="M88.9024 64.3097C88.9024 64.3278 88.9069 64.3504 88.9114 64.3685C88.8166 64.3459 88.7218 64.3097 88.6316 64.278L88.6496 64.2373C88.7309 64.2644 88.8166 64.2916 88.9024 64.3097Z" fill="black"/>
<path d="M85.0395 75.2869C85.8383 75.7889 86.619 76.3136 87.3817 76.8608C85.7751 76.2322 84.2633 75.3231 83.0088 74.1245C83.7218 74.4682 84.3897 74.8753 85.0395 75.2869Z" fill="black"/>
<path d="M86.4611 54.5087C85.7752 52.9212 84.9583 51.3698 83.9204 49.9904C84.1957 50.1125 84.4845 50.1894 84.7733 50.2527C85.351 50.3703 85.9376 50.4381 86.5243 50.4788C87.6976 50.5738 88.8754 50.5874 90.0488 50.5603C92.4044 50.5241 94.7511 50.3296 97.0887 49.9632C99.4218 49.5652 101.719 48.9818 103.962 48.2129C105.085 47.8239 106.195 47.3943 107.274 46.8561C107.816 46.5847 108.348 46.2952 108.863 45.9198C109.016 45.8068 109.169 45.6846 109.314 45.5444C108.682 47.245 108.249 49.0225 107.901 50.8045C107.473 53.0659 107.265 55.359 107.112 57.6475C106.99 59.5155 106.904 61.3925 106.954 63.2649C106.268 63.3961 105.591 63.5453 104.914 63.6946C104.138 63.8257 103.375 64.0021 102.603 64.1242L101.448 64.3233C101.064 64.4001 100.681 64.4589 100.293 64.5132L99.133 64.6851L97.9687 64.8162C96.4118 64.9564 94.8459 65.0243 93.2799 64.9474C92.4992 64.9022 91.7185 64.8479 90.9423 64.7303C90.2564 64.6353 89.5704 64.5087 88.9025 64.3097C88.6994 62.9709 88.4558 61.6322 88.1624 60.307C87.7157 58.3486 87.2734 56.3676 86.4611 54.5087Z" fill="#141414"/>
<path d="M88.6498 64.2373L88.6317 64.278C88.722 64.3097 88.8167 64.3459 88.9115 64.3685C89.0018 64.9926 89.0875 65.6168 89.1597 66.2409C89.1958 66.5666 89.2274 66.8922 89.259 67.2179C89.2139 67.2088 89.1642 67.1953 89.1191 67.1817L89.1056 67.2224C89.1597 67.2405 89.2094 67.2586 89.2635 67.2721C89.4215 68.923 89.5298 70.5829 89.4801 72.2427L89.3899 72.2382C89.3583 71.0939 89.2455 69.9542 89.0965 68.8189H89.092C88.9837 67.9777 88.8528 67.141 88.7129 66.3043C88.3925 64.3413 87.9774 62.392 87.4584 60.4788C87.3366 59.9949 87.1967 59.52 87.0477 59.0496C86.8988 58.5747 86.7679 58.0998 86.5919 57.634L86.1181 56.2319C85.9466 55.7706 85.7796 55.3047 85.6217 54.8389C84.9899 53.0931 84.2769 51.3925 83.4646 49.6919C83.5955 49.8276 83.7624 49.918 83.9159 49.9904H83.9204C84.9583 51.3699 85.7751 52.9212 86.4611 54.5087C87.2734 56.3676 87.7156 58.3486 88.1624 60.307C88.4557 61.6322 88.6994 62.9709 88.9025 64.3097C88.8167 64.2916 88.731 64.2645 88.6498 64.2373Z" fill="black"/>
<path d="M83.4236 49.3667C83.5274 49.4888 83.6267 49.6109 83.7214 49.7376C83.5815 49.6426 83.4597 49.5205 83.4236 49.3667Z" fill="black"/>
<path d="M83.424 49.3668C83.4601 49.5206 83.5819 49.6427 83.7218 49.7377C83.7895 49.8191 83.8572 49.905 83.9159 49.9909C83.7624 49.9186 83.5955 49.8281 83.4646 49.6924C83.4149 49.5839 83.3608 49.4708 83.3066 49.3623L83.3788 49.3125C83.3924 49.3306 83.4104 49.3487 83.424 49.3668Z" fill="black"/>
<path d="M106.823 45.9788C107.323 45.712 107.815 45.418 108.24 45.0924C108.447 44.925 108.646 44.7486 108.777 44.5768C108.84 44.4908 108.889 44.4049 108.898 44.3597C108.907 44.3054 108.903 44.328 108.898 44.319C108.889 44.2873 108.709 44.1335 108.492 44.0476C108.271 43.9481 108.018 43.8712 107.757 43.8034C107.229 43.6767 106.669 43.5953 106.105 43.541C104.972 43.4325 103.817 43.4234 102.671 43.4596C100.365 43.5184 98.0633 43.7581 95.7888 44.1245C94.6471 44.3009 93.5324 44.5361 92.4087 44.8165C91.2851 45.0833 90.1659 45.4044 89.0648 45.7798C87.9636 46.1552 86.8761 46.5804 85.8426 47.1141C85.3282 47.3854 84.8228 47.6704 84.3579 48.0232C84.1323 48.195 83.9112 48.385 83.7216 48.5976C83.5456 48.8101 83.3741 49.0679 83.4102 49.3257C83.4148 49.3393 83.4148 49.3529 83.4238 49.3664C83.4103 49.3483 83.3922 49.3303 83.3787 49.3122L83.3065 49.3619C83.3606 49.4705 83.4148 49.5835 83.4644 49.6921C83.3741 49.6016 83.3065 49.4931 83.2749 49.3529C83.2207 49.0091 83.4148 48.7242 83.5908 48.489C83.7803 48.2538 84.0014 48.0503 84.2316 47.8558C84.6874 47.4759 85.1747 47.1367 85.6757 46.8246C86.682 46.1914 87.729 45.6351 88.7985 45.115C90.9376 44.1019 93.1894 43.2516 95.5451 42.7948C97.8872 42.3199 100.265 42.1118 102.653 42.1118C103.849 42.1209 105.045 42.1842 106.24 42.3425C106.841 42.4194 107.441 42.5234 108.05 42.6953C108.352 42.7812 108.659 42.8852 108.971 43.0345C109.268 43.2018 109.63 43.3646 109.887 43.8712C110.013 44.129 110.004 44.4682 109.918 44.6898C109.842 44.925 109.724 45.0878 109.607 45.2371C109.598 45.2507 109.584 45.2642 109.571 45.2733C109.679 44.9295 109.801 44.5858 109.932 44.2466L109.851 44.2104C109.657 44.6491 109.476 45.0924 109.314 45.5446C109.169 45.6849 109.016 45.807 108.862 45.92C108.348 46.2954 107.815 46.5849 107.274 46.8563C106.195 47.3945 105.085 47.8242 103.961 48.2131C101.719 48.982 99.4216 49.5654 97.0885 49.9635C94.7509 50.3298 92.4042 50.5243 90.0486 50.5605C88.8752 50.5876 87.6974 50.574 86.5241 50.4791C85.9374 50.4384 85.3507 50.3705 84.7731 50.2529C84.4843 50.1896 84.1955 50.1127 83.9202 49.9906H83.9157C83.857 49.9047 83.7893 49.8187 83.7216 49.7373C83.7983 49.7916 83.8841 49.8368 83.9698 49.8775C84.2316 49.9951 84.5114 50.0765 84.7957 50.1398C85.3643 50.262 85.9509 50.3117 86.5331 50.3479C87.6974 50.4022 88.8707 50.3524 90.035 50.271C91.2038 50.1805 92.3636 50.0403 93.5189 49.8775C94.6742 49.7192 95.8294 49.5293 96.9666 49.2941C99.2456 48.8373 101.493 48.195 103.664 47.3809C104.747 46.9693 105.816 46.5171 106.823 45.9788Z" fill="#141414"/>
<path d="M115.329 67.4259C115.478 67.4169 115.627 67.4214 115.735 67.4531C115.844 67.4847 115.875 67.5345 115.898 67.6068C115.939 67.7787 115.803 68.0908 115.65 68.3395C115.329 68.8597 114.887 69.3346 114.431 69.7823C113.506 70.6733 112.477 71.4648 111.403 72.1839C107.089 75.0514 102.089 76.8651 96.9262 77.1681C94.3539 77.3535 91.75 77.2314 89.2725 76.5892C86.7995 75.9696 84.4754 74.7213 82.7516 72.8443C81.8986 71.8945 81.1315 70.8361 80.599 69.6919C80.3462 69.1265 80.1432 68.5024 80.247 67.9596C80.3011 67.6928 80.441 67.4621 80.6667 67.3264C80.8878 67.1862 81.1901 67.141 81.4925 67.1319C82.1107 67.1184 82.7561 67.2405 83.3879 67.3762C84.0197 67.5164 84.6514 67.6837 85.2877 67.8511C86.5468 68.1948 87.8104 68.534 89.092 68.819H89.0965C89.2455 69.9542 89.3583 71.0939 89.3899 72.2382L89.4801 72.2427C89.5298 70.5829 89.4214 68.923 89.2635 67.2721C89.9494 67.4938 90.6534 67.6294 91.3619 67.7425C92.1246 67.8646 92.8963 67.937 93.668 68.0003C95.2113 68.1043 96.7592 68.0772 98.3026 67.9913C99.8505 67.9144 101.394 67.747 102.915 67.4802C103.673 67.3309 104.431 67.1636 105.185 66.9917C105.839 66.8153 106.498 66.6389 107.148 66.4399C107.297 68.0953 107.518 69.7416 107.87 71.3698L107.96 71.3608C107.96 70.619 107.96 69.8773 107.955 69.1356C109.165 68.9185 110.365 68.638 111.552 68.326L113.447 67.8194C114.079 67.6611 114.72 67.4757 115.329 67.4259Z" fill="#141414"/>
<path d="M108.578 157.358C107.892 157.385 107.202 157.403 106.512 157.376C105.135 157.326 103.759 157.173 102.405 156.892C101.047 156.616 99.7153 156.218 98.4292 155.703C97.7884 155.431 97.1476 155.16 96.5429 154.812L95.6313 154.305L94.8596 153.808L94.7558 153.74L94.3181 153.455L93.9029 153.138L93.068 152.51C92.5491 152.048 91.9985 151.619 91.5156 151.117C90.4957 150.167 89.6158 149.086 88.7583 147.996C87.1021 145.762 85.7122 143.337 84.6246 140.786C84.056 139.52 83.6047 138.208 83.176 136.892C82.7744 135.563 82.3908 134.26 82.0388 132.917C81.3619 130.239 80.8249 127.512 80.6037 124.753C80.3736 121.999 80.36 119.222 80.6353 116.467C81.2084 110.972 82.8511 105.581 85.5723 100.809L85.6535 100.854C84.4261 103.301 83.4378 105.861 82.7338 108.498C82.0117 111.126 81.5559 113.817 81.3393 116.53C80.9241 121.958 81.565 127.426 82.9414 132.682C83.2888 133.984 83.686 135.314 84.0786 136.607C84.5073 137.892 84.9586 139.172 85.4911 140.416C86.5245 142.921 87.8513 145.3 89.4352 147.485C90.2566 148.557 91.105 149.61 92.0707 150.547C92.531 151.044 93.059 151.465 93.5509 151.926L94.3451 152.55L94.7423 152.862L95.1574 153.147L95.9923 153.713L96.8678 154.215C97.4409 154.572 98.0546 154.848 98.6684 155.133C99.9049 155.671 101.191 156.101 102.509 156.408C103.826 156.716 105.176 156.906 106.53 156.987C107.207 157.028 107.888 157.032 108.565 157.023C109.242 157.001 109.919 156.947 110.555 156.766C110.717 156.72 110.866 156.666 110.916 156.594C110.943 156.562 110.943 156.521 110.907 156.476C111.02 156.499 111.133 156.521 111.245 156.539C111.245 156.621 111.223 156.702 111.173 156.77C111.011 156.978 110.803 157.014 110.645 157.069C109.968 157.272 109.264 157.331 108.578 157.358Z" fill="black"/>
<path d="M116.371 67.4849C116.434 67.7246 116.38 67.9281 116.326 68.109C116.268 68.29 116.191 68.4483 116.105 68.602C115.758 69.2126 115.315 69.7192 114.855 70.2076C113.925 71.1665 112.883 71.9987 111.804 72.7676C111.466 73.0073 111.123 73.2379 110.775 73.4596C109.778 73.7264 108.808 74.0928 107.878 74.527C106.651 75.1104 105.473 75.7979 104.367 76.5894C101.989 77.4216 99.489 77.8829 96.9889 78.0683C94.3444 78.2447 91.6458 78.1181 89.0554 77.417C88.4913 77.2633 87.9317 77.0824 87.3812 76.8607C86.6185 76.3135 85.8378 75.7888 85.0391 75.2868C84.3892 74.8752 83.7213 74.4682 83.0083 74.1244C82.733 73.8711 82.4758 73.5952 82.2276 73.3103C81.3611 72.2836 80.5849 71.1846 80.0569 69.9272C79.8133 69.294 79.5786 68.602 79.7411 67.8422C79.8268 67.4713 80.0705 67.105 80.4225 66.915C80.77 66.716 81.1445 66.6844 81.492 66.6889C82.187 66.7115 82.8323 66.8788 83.4686 67.0462C84.1049 67.2226 84.7277 67.4216 85.3504 67.6251C86.6005 68.0231 87.837 68.4392 89.0915 68.8191C87.8099 68.5342 86.5463 68.195 85.2873 67.8512C84.651 67.6839 84.0192 67.5166 83.3874 67.3763C82.7556 67.2407 82.1103 67.1185 81.492 67.1321C81.1897 67.1412 80.8873 67.1864 80.6662 67.3266C80.4405 67.4623 80.3006 67.6929 80.2465 67.9598C80.1427 68.5025 80.3458 69.1267 80.5985 69.692C81.131 70.8363 81.8982 71.8947 82.7511 72.8445C84.475 74.7214 86.799 75.9697 89.272 76.5894C91.7496 77.2316 94.3534 77.3537 96.9257 77.1683C102.088 76.8653 107.089 75.0516 111.403 72.1841C112.477 71.465 113.506 70.6735 114.431 69.7825C114.887 69.3347 115.329 68.8598 115.649 68.3397C115.803 68.091 115.938 67.7789 115.897 67.607C115.875 67.5346 115.843 67.4849 115.735 67.4532C115.627 67.4216 115.478 67.4171 115.329 67.4261C114.72 67.4758 114.079 67.6613 113.447 67.8196L111.552 68.3261C110.365 68.6382 109.164 68.9186 107.955 69.1357C107.955 69.1312 107.955 69.1222 107.955 69.1176C109.142 68.8056 110.315 68.4573 111.484 68.091L113.352 67.4804C113.98 67.2904 114.593 67.0688 115.288 66.9738C115.464 66.9557 115.649 66.9467 115.857 66.9964C116.069 67.0326 116.317 67.2361 116.371 67.4849Z" fill="black"/>
<path d="M76.3345 86.0153C78.3969 85.9022 80.202 87.7294 80.0169 88.1636C79.8816 88.4802 78.7579 87.9013 76.6775 88.0415C74.1864 88.2089 72.9228 89.2265 72.7153 88.9144C72.449 88.5119 74.0962 86.1374 76.3345 86.0153Z" fill="black"/>
<path d="M76.9663 97.5483C78.3156 95.2643 79.8229 93.0707 81.5017 91.0264C80.378 92.5732 79.331 94.1743 78.3653 95.8206C78.3111 95.902 78.2525 95.9879 78.1983 96.0693C77.914 96.4764 77.6838 96.888 77.2777 97.3086C77.1965 97.399 77.0882 97.485 76.9663 97.5483Z" fill="black"/>
<path d="M72.6342 106.811C72.6884 106.992 72.7426 107.177 72.7922 107.358C72.729 107.204 72.6658 107.055 72.5981 106.906C72.6117 106.874 72.6207 106.843 72.6342 106.811Z" fill="black"/>
<path d="M92.5758 153.111C93.2978 153.423 94.0379 153.69 94.7916 153.912C93.2617 153.554 91.7545 153.025 90.369 152.243C88.9791 151.465 87.702 150.515 86.4655 149.529C84.006 147.562 81.5962 145.49 79.3804 143.22C77.115 140.981 75.2738 138.308 73.8162 135.472C72.363 132.632 71.3025 129.583 70.6843 126.444C70.0751 123.301 69.9848 120.058 70.3413 116.888C70.7023 113.735 71.2935 110.574 72.3585 107.571C72.4352 107.349 72.5165 107.127 72.5977 106.906C72.6654 107.055 72.7286 107.204 72.7918 107.358C72.7421 107.177 72.688 106.992 72.6338 106.811C73.6356 104.079 74.809 101.424 76.1989 98.8732C76.4471 98.43 76.7043 97.9867 76.9661 97.548C77.0879 97.4847 77.1962 97.3988 77.2775 97.3083C77.6836 96.8877 77.9138 96.4761 78.1981 96.0691C78.2522 95.9877 78.3109 95.9017 78.365 95.8203C76.1448 99.6014 74.3532 103.622 73.0129 107.788C72.5481 109.285 72.1555 110.8 71.8486 112.329C71.5417 113.857 71.3251 115.422 71.1581 116.974C70.8332 120.081 70.9505 123.22 71.5688 126.273C72.7286 132.387 75.5807 138.213 79.8858 142.74C82.0159 145.042 84.3445 147.15 86.7498 149.19C87.9366 150.216 89.1551 151.211 90.4864 152.035C91.1543 152.446 91.8537 152.803 92.5758 153.111Z" fill="black"/>
<path d="M113.569 132.519C114.273 131.202 114.95 129.877 115.681 128.593C116.444 127.322 117.188 126.015 117.865 124.681C118.208 124.007 118.52 123.337 118.827 122.627C119.12 121.913 119.323 121.166 119.49 120.42C119.81 118.928 119.941 117.417 120.009 115.92C120.189 112.944 120.054 109.828 118.948 106.996C118.285 105.26 117.306 103.663 116.092 102.274C117.459 102.225 118.822 102.026 120.153 101.664C120.853 101.465 121.561 101.252 122.202 100.881C122.838 100.511 123.434 100.04 123.863 99.4477L123.831 99.416C123.231 99.8276 122.626 100.176 121.995 100.483C121.358 100.782 120.717 101.076 120.045 101.316C119.373 101.551 118.682 101.732 117.983 101.881C117.342 102.026 116.697 102.139 116.042 102.216C115.293 101.365 114.458 100.596 113.556 99.9226L113.501 99.9949C115.803 101.867 117.586 104.364 118.52 107.15C119.508 109.936 119.549 112.93 119.282 115.87C119.16 117.345 118.966 118.805 118.614 120.217C118.447 120.922 118.217 121.61 117.96 122.279C117.694 122.939 117.369 123.622 117.067 124.292C116.453 125.639 115.789 126.956 115.153 128.317C114.512 129.674 113.971 131.071 113.488 132.482L113.569 132.519ZM128.673 92.1297C128.764 91.6775 128.822 91.2161 128.845 90.7593H128.858C130.122 93.7218 131.923 99.1763 132.067 102.374C132.148 103.966 132.058 105.567 131.742 107.123C131.449 108.679 130.898 110.185 130.262 111.646C129.946 112.369 129.594 113.093 129.215 113.781C128.822 114.463 128.394 115.128 127.929 115.771C126.995 117.055 125.939 118.258 124.878 119.47C123.813 120.687 122.775 121.908 121.692 123.093C121.155 123.686 120.591 124.255 120.049 124.88C119.512 125.499 119.016 126.141 118.515 126.779C116.561 129.375 114.824 132.148 113.492 135.133C113.158 135.879 112.861 136.639 112.608 137.43C112.477 137.851 112.405 138.231 112.301 138.634C112.22 139.036 112.134 139.439 112.066 139.841C111.796 141.46 111.705 143.125 111.94 144.771C112.197 146.404 112.757 148.032 113.777 149.357C114.034 149.683 114.287 150.013 114.589 150.298C114.738 150.443 114.873 150.601 115.031 150.732L115.514 151.126C115.821 151.401 116.187 151.6 116.525 151.831C116.868 152.062 117.247 152.252 117.631 152.401C118.407 152.704 119.233 152.862 120.049 152.889C120.866 152.908 121.688 152.871 122.486 152.7C123.118 152.568 123.732 152.365 124.319 152.107C122.987 152.826 121.507 153.256 120.004 153.387C118.384 153.514 116.728 153.278 115.225 152.659C113.723 152.039 112.454 150.963 111.475 149.678C109.535 147.055 108.749 143.762 108.109 140.569C107.811 138.968 107.698 137.331 107.716 135.698C107.73 134.065 107.906 132.428 108.086 130.795C108.185 129.999 108.352 129.181 108.488 128.362L108.894 125.906L109.666 120.994C109.787 120.176 109.914 119.353 110.009 118.525C110.108 117.706 110.18 116.838 110.153 116.006C110.13 114.332 109.959 112.659 109.634 111.022C109.318 109.38 108.804 107.774 108.109 106.259C107.423 104.739 106.574 103.297 105.572 101.976L105.5 102.026C107.342 104.767 108.641 107.869 109.165 111.108C109.444 112.727 109.575 114.369 109.557 116.006C109.566 116.833 109.476 117.616 109.359 118.439L108.98 120.886L108.163 125.784L107.734 128.226C107.59 129.041 107.414 129.846 107.301 130.691C106.85 133.984 106.732 137.399 107.373 140.709C107.527 141.542 107.748 142.342 107.96 143.147C108.176 143.952 108.425 144.753 108.709 145.544C109.277 147.123 110.036 148.652 111.078 149.986C111.62 150.637 112.202 151.257 112.883 151.763C113.046 151.903 113.231 152.008 113.407 152.125C113.587 152.238 113.754 152.369 113.944 152.46C114.323 152.65 114.693 152.858 115.09 153.003C116.656 153.618 118.362 153.848 120.031 153.699C121.706 153.545 123.326 152.998 124.779 152.175C125.14 151.962 125.492 151.736 125.83 151.487C126.173 151.23 126.476 150.927 126.746 150.605C126.765 150.587 126.778 150.565 126.792 150.547C127.315 149.913 127.726 149.208 128.141 148.525C128.353 148.172 128.574 147.833 128.858 147.575C128.989 147.449 129.174 147.354 129.278 147.354C129.31 147.363 129.314 147.358 129.341 147.43C129.355 147.503 129.364 147.589 129.355 147.684C129.274 148.453 128.958 149.244 128.592 149.954C127.834 151.383 126.656 152.564 125.298 153.446C123.94 154.337 122.41 154.938 120.839 155.359C119.264 155.771 117.644 156.001 116.015 156.083C112.775 156.259 109.485 155.608 106.656 154.061C105.239 153.292 103.943 152.306 102.766 151.189C102.183 150.633 101.592 150.04 101.055 149.434C100.784 149.131 100.505 148.837 100.243 148.525L99.4938 147.566C99.3719 147.403 99.2411 147.25 99.1237 147.082L98.7853 146.576L98.1084 145.562C97.7067 144.852 97.2645 144.169 96.9215 143.428C96.1724 141.985 95.5767 140.461 95.0803 138.905C94.0604 135.793 93.573 132.537 93.2707 129.258C93.1127 127.611 93.0179 125.983 93.036 124.341C93.0405 123.97 93.045 123.604 93.0586 123.233C93.0631 123.116 93.0676 122.994 93.0721 122.876C93.1217 121.723 93.212 120.569 93.3248 119.416C93.6542 116.132 94.1055 112.849 94.5433 109.565C94.9855 106.286 95.4864 103.012 96.1092 99.7598L96.0235 99.7417C95.2788 102.971 94.62 106.223 94.092 109.497C94.0649 109.66 94.0378 109.828 94.0108 109.99C93.6091 111.863 93.2842 113.753 93.0315 115.658C92.8871 116.748 92.7652 117.842 92.6705 118.937C92.6524 119.072 92.6344 119.203 92.6208 119.339C92.4358 120.99 92.2869 122.654 92.2463 124.328C92.2147 125.463 92.2372 126.607 92.3004 127.747C92.3275 129.217 92.4223 130.687 92.6028 132.148C92.7697 133.523 93.027 134.884 93.3564 136.232C93.5956 137.227 93.8709 138.213 94.1913 139.19C94.1913 139.203 94.1958 139.217 94.2003 139.226C94.2093 139.262 94.2229 139.294 94.2364 139.326C96.2175 145.685 100.387 151.451 106.254 154.812C107.716 155.599 109.291 156.146 110.907 156.476C110.943 156.521 110.943 156.562 110.916 156.594C110.866 156.666 110.717 156.72 110.555 156.766C109.918 156.946 109.241 157.001 108.564 157.023C107.888 157.032 107.206 157.028 106.529 156.987C105.175 156.906 103.826 156.716 102.508 156.408C101.191 156.101 99.9044 155.671 98.6679 155.133C98.0542 154.848 97.4405 154.572 96.8673 154.215L95.9919 153.713L95.157 153.147L94.7418 152.862L94.3447 152.55L93.5504 151.926C93.0586 151.465 92.5306 151.044 92.0703 150.547C91.1045 149.61 90.2561 148.557 89.4348 147.485C87.8508 145.3 86.524 142.921 85.4906 140.416C84.9581 139.172 84.5068 137.892 84.0781 136.607C83.6855 135.314 83.2884 133.984 82.9409 132.681C81.5645 127.426 80.9237 121.958 81.3389 116.53C81.5555 113.817 82.0113 111.126 82.7333 108.498C83.4373 105.861 84.4256 103.301 85.6531 100.854L85.5719 100.809C82.8506 105.581 81.208 110.972 80.6349 116.467C80.3596 119.222 80.3731 121.999 80.6033 124.753C80.8244 127.512 81.3614 130.239 82.0383 132.917C82.3903 134.26 82.7739 135.563 83.1756 136.892C83.6043 138.208 84.0556 139.52 84.6242 140.786C85.7117 143.337 87.1017 145.761 88.7579 147.996C89.6153 149.086 90.4953 150.167 91.5152 151.117C91.9981 151.619 92.5486 152.048 93.0676 152.51L93.9024 153.138L94.3176 153.455L94.7554 153.74L94.8592 153.808L94.7915 153.912C94.0378 153.69 93.2977 153.423 92.5757 153.111C91.8536 152.804 91.1542 152.446 90.4863 152.035C89.155 151.212 87.9365 150.216 86.7497 149.19C84.3444 147.15 82.0158 145.042 79.8857 142.74C75.5806 138.213 72.7285 132.387 71.5687 126.273C70.9504 123.22 70.8331 120.081 71.158 116.974C71.325 115.422 71.5416 113.857 71.8485 112.329C72.1554 110.8 72.548 109.285 73.0128 107.788C74.3531 103.622 76.1447 99.6015 78.3649 95.8204C78.8568 95.0922 79.3713 94.3866 79.9083 93.6946C80.5085 92.9258 81.1132 92.1614 81.7631 91.4378L82.2595 90.8814C82.4264 90.6915 82.5889 90.4608 82.6972 90.2075C82.8958 89.7191 83.0041 89.217 83.0447 88.7105C83.1304 87.6974 82.9589 86.6933 82.7017 85.739C82.431 84.7801 82.0248 83.8665 81.5284 83.0072C81.023 82.1524 80.4273 81.3383 79.6691 80.6689C78.9155 80.0086 77.9814 79.4794 76.9299 79.3482C75.8829 79.2352 74.8044 79.5201 73.9469 80.0945C73.076 80.6508 72.3765 81.4152 71.8169 82.2474C70.9143 83.6087 70.3277 85.142 70.0524 86.7295L69.3665 86.6028C69.6237 85.1465 69.9802 83.7082 70.454 82.3152C71.14 80.3025 72.1147 78.3758 73.5137 76.8019C74.8991 75.237 76.7674 74.0429 78.8523 73.8892C79.8857 73.8032 80.9417 73.9344 81.9436 74.2646C82.9544 74.5812 83.8886 75.1058 84.8408 75.6305C86.7226 76.6933 88.5683 77.8421 90.2832 79.1764C89.4889 78.4346 88.627 77.7607 87.747 77.123C87.6252 77.0325 87.5033 76.9466 87.3815 76.8607C87.932 77.0823 88.4916 77.2632 89.0557 77.417C91.6461 78.118 94.3447 78.2446 96.9892 78.0683C99.4893 77.8828 101.989 77.4215 104.368 76.5893C103.402 77.2677 102.49 78.023 101.642 78.8462C102.608 78.0276 103.632 77.2858 104.702 76.6164C104.909 76.4853 105.121 76.3541 105.333 76.2275C106.728 75.6892 108.082 75.047 109.377 74.3098C111.281 73.6359 113.294 73.2605 115.293 73.4595C116.525 73.5635 117.739 73.8801 118.872 74.3867C120.018 74.8751 121.033 75.6169 121.985 76.4219L122.685 77.0461L123.33 77.7336C123.777 78.1768 124.134 78.6969 124.535 79.1809C124.964 79.701 125.307 80.2347 125.627 80.7277C126.115 81.6232 126.607 82.6092 127.071 83.6992C127.631 84.9972 128.073 86.241 128.416 87.3898H128.412C128.579 88.1587 128.637 88.9547 128.624 89.7372C128.615 90.5196 128.515 91.2975 128.321 92.0483C128.136 92.8036 127.798 93.5002 127.441 94.1786C127.107 94.8751 126.611 95.4631 126.128 96.1053L126.16 96.137C126.471 95.8973 126.819 95.6711 127.08 95.3636C127.22 95.2188 127.351 95.0605 127.491 94.9113C127.608 94.7439 127.717 94.5721 127.834 94.4047C128.263 93.7127 128.529 92.9258 128.673 92.1297ZM121.588 94.5404C123.032 92.6182 123.673 90.194 123.574 87.8602C123.461 85.5219 122.671 83.2333 121.25 81.3925C120.537 80.4744 119.666 79.6648 118.637 79.0768C117.613 78.4934 116.43 78.1406 115.225 78.118C114.016 78.0999 112.802 78.4165 111.755 79.0135C110.699 79.597 109.819 80.4473 109.151 81.4197C107.793 83.369 107.26 85.7254 107.256 88.0094C107.292 90.298 107.87 92.6408 109.259 94.5721C109.945 95.5309 110.839 96.3767 111.904 96.9556C112.96 97.5436 114.183 97.8556 115.401 97.8602C116.624 97.8511 117.847 97.521 118.903 96.9239C119.964 96.3269 120.871 95.4947 121.588 94.5404Z" fill="url(#paint0_linear)"/>
<path d="M82.702 85.7389C82.9592 86.6932 83.1307 87.6973 83.0449 88.7104C83.0043 89.217 82.896 89.719 82.6975 90.2075C82.5892 90.4607 82.4267 90.6914 82.2597 90.8814L81.7633 91.4377C81.1135 92.1613 80.5088 92.9257 79.9086 93.6946C79.3715 94.3866 78.8571 95.0921 78.3652 95.8203C79.3309 94.174 80.3779 92.5729 81.5016 91.0261L81.4564 90.9809C81.7723 90.6552 82.1018 90.3612 82.2823 90.013C82.4763 89.6014 82.6117 89.1401 82.6749 88.6697C82.8013 87.7244 82.7245 86.7384 82.4718 85.8022C82.2281 84.857 81.8491 83.9479 81.3436 83.1202C80.8292 82.297 80.1929 81.5417 79.4302 80.9628C78.6766 80.3793 77.7876 79.9723 76.876 79.909C75.9644 79.8547 75.0528 80.1035 74.2586 80.601C73.4688 81.094 72.7648 81.7543 72.1601 82.5006C71.041 83.9072 70.2196 85.6394 70.0166 87.4666L69.9534 87.4621C69.9804 87.2133 70.012 86.9691 70.0527 86.7294C70.3279 85.1419 70.9146 83.6086 71.8171 82.2473C72.3767 81.4151 73.0762 80.6507 73.9472 80.0944C74.8046 79.52 75.8832 79.2351 76.9301 79.3481C77.9816 79.4793 78.9158 80.0085 79.6694 80.6688C80.4275 81.3382 81.0232 82.1523 81.5286 83.0071C82.0251 83.8665 82.4312 84.7801 82.702 85.7389Z" fill="black"/>
<path d="M81.5017 91.0259C79.823 93.0702 78.3157 95.2638 76.9664 97.5478C76.7949 97.6428 76.6054 97.7061 76.4339 97.7242C76.136 97.774 75.8427 97.7468 75.5719 97.6835C75.0304 97.5569 74.5611 97.3036 74.1278 97.0141C73.6946 96.7247 73.3065 96.3945 72.95 96.0282C72.2325 95.309 71.6503 94.4678 71.19 93.5813C70.2649 91.8038 69.7956 89.8002 69.9174 87.8283C69.9264 87.7061 69.94 87.584 69.9535 87.4619L70.0167 87.4664C70.0032 87.5886 69.9941 87.7107 69.9851 87.8328C69.8588 89.8002 70.5402 91.7405 71.5781 93.3552C72.0971 94.1648 72.7153 94.911 73.4058 95.5623C74.0917 96.191 74.886 96.788 75.7299 96.978C75.9375 97.0232 76.1405 97.0413 76.3256 97.0096C76.5196 96.9825 76.6369 96.9282 76.7768 96.788C77.0566 96.5031 77.3319 96.0598 77.6162 95.6663C78.1848 94.8567 78.785 94.0652 79.4078 93.2964C80.026 92.5275 80.6804 91.7812 81.3708 91.0666C81.3979 91.0395 81.425 91.0078 81.4566 90.9807L81.5017 91.0259Z" fill="black"/>
<path d="M75.5716 97.684C75.8423 97.7473 76.1357 97.7744 76.4335 97.7247C76.605 97.7066 76.7945 97.6433 76.966 97.5483C76.7043 97.987 76.4471 98.4302 76.1989 98.8735C74.8089 101.424 73.6356 104.079 72.6338 106.811C72.0787 104.902 71.3612 103.039 70.6933 101.176C70.3232 100.158 69.9622 99.1313 69.6643 98.1091C69.371 97.0824 69.1454 96.0377 69.0055 94.9793C68.7167 92.8536 68.7889 90.7233 69.0596 88.5795C69.1409 87.9192 69.2401 87.2588 69.3665 86.603L70.0524 86.7297C70.0118 86.9694 69.9802 87.2136 69.9532 87.4624C69.9396 87.5845 69.9261 87.7066 69.9171 87.8287C69.7952 89.8007 70.2645 91.8043 71.1897 93.5818C71.65 94.4682 72.2321 95.3095 72.9497 96.0286C73.3062 96.395 73.6943 96.7251 74.1275 97.0146C74.5607 97.3041 75.03 97.5573 75.5716 97.684Z" fill="url(#paint1_linear)"/>
<path d="M87.7472 77.1232C88.6272 77.7609 89.4891 78.4348 90.2834 79.1765C88.5685 77.8423 86.7228 76.6935 84.841 75.6306C83.8888 75.106 82.9546 74.5813 81.9438 74.2647C80.9419 73.9346 79.8859 73.8034 78.8525 73.8893C76.7676 74.0431 74.8993 75.2371 73.5139 76.802C72.1149 78.376 71.1402 80.3027 70.4542 82.3154C69.9804 83.7084 69.6239 85.1467 69.3667 86.603C69.2403 87.2588 69.141 87.9192 69.0598 88.5795C68.789 90.7233 68.7168 92.8536 69.0056 94.9793C69.1455 96.0377 69.3712 97.0824 69.6645 98.1091C69.9623 99.1313 70.3234 100.158 70.6934 101.176C71.3613 103.039 72.0788 104.902 72.6339 106.811C72.6204 106.843 72.6113 106.874 72.5978 106.906C71.8126 105.052 70.9371 103.252 70.1338 101.397C69.7096 100.393 69.2809 99.3891 68.947 98.3262C68.6175 97.2724 68.3738 96.1869 68.2069 95.0924C68.0399 93.9979 67.9542 92.8898 67.9587 91.7771C67.9632 90.6645 68.0579 89.57 68.1843 88.4755C68.437 86.2864 68.8838 84.12 69.6149 82.0259C70.3414 79.9364 71.3839 77.9056 72.9137 76.2503C73.6718 75.4271 74.5564 74.6989 75.5582 74.1607C76.5555 73.6225 77.6702 73.2833 78.8074 73.2335C79.9401 73.1657 81.0728 73.3602 82.1198 73.7491C82.4221 73.8622 82.72 73.9888 83.0088 74.1245C84.2633 75.3231 85.7751 76.2322 87.3817 76.8608C87.5035 76.9468 87.6254 77.0327 87.7472 77.1232Z" fill="black"/>
<path d="M110.677 89.3349C110.397 88.955 112.627 85.2282 115.713 85.3774C118.773 85.5267 120.407 88.4167 120.095 88.7695C119.838 89.0635 118.425 87.8243 115.614 87.6931C112.775 87.5574 110.907 89.656 110.677 89.3349Z" stroke="black" stroke-miterlimit="10"/>
<path d="M72.7153 88.9144C72.449 88.5119 74.0962 86.1374 76.3345 86.0153C78.3969 85.9022 80.202 87.7294 80.0169 88.1636C79.8816 88.4802 78.7579 87.9013 76.6775 88.0415C74.1864 88.2089 72.9228 89.2265 72.7153 88.9144Z" stroke="black" stroke-miterlimit="10"/>
<path d="M75.7566 97.0506C77.5211 99.4975 78.7034 99.9724 81.2757 98.8372C82.977 98.0818 84.5746 97.0099 86.0999 95.8973C88.1216 94.4274 90.2291 93.2695 92.6705 94.2646C94.1868 94.8842 95.3646 94.8028 96.8358 94.0927C98.7943 93.1474 100.816 93.5635 102.738 94.6942C104.62 95.7978 106.529 96.9511 108.555 97.6522C111.241 98.5839 112.274 98.0095 113.826 95.5807C113.366 102.483 103.352 109.348 95.0623 102.903C91.3753 106.268 87.1965 106.983 82.6476 105.187C79.1231 103.799 76.5779 100.768 75.7566 97.0506Z" fill="black"/>
<path opacity="0.47" d="M115.221 96.0698C119.316 96.0698 122.636 92.4249 122.636 87.9287C122.636 83.4325 119.316 79.7876 115.221 79.7876C111.126 79.7876 107.807 83.4325 107.807 87.9287C107.807 92.4249 111.126 96.0698 115.221 96.0698Z" fill="#69CAE0"/>
<path d="M124.63 87.8876C124.59 87.571 124.544 87.2363 124.341 86.9921C124.152 86.7614 123.85 86.6438 123.642 86.4267C123.353 86.1237 123.29 85.6805 123.209 85.2734C122.69 82.6954 120.858 80.4249 118.452 79.3756C116.376 78.4711 113.926 78.5027 111.859 79.4118C111.444 79.5927 110.938 79.7782 110.577 80.0495C110.144 80.3707 109.765 80.823 109.418 81.23C108.705 82.0713 108.109 83.0165 107.667 84.0296C107.148 85.2191 106.841 86.5082 106.8 87.8062C106.705 90.8727 108.168 93.998 110.708 95.7166C113.244 97.4353 116.805 97.5936 119.382 95.9337C120.23 95.3865 120.943 94.6854 121.557 93.8894C122.487 92.6818 123.182 91.2571 123.759 89.837C123.759 89.5339 123.759 89.1811 123.759 89.837C123.868 89.9365 124.026 90.1128 124.147 90.3707C124.31 90.7099 124.314 91.135 124.314 91.1441C124.323 91.619 124.427 94.8347 124.558 99.2625C124.775 102.894 124.842 105.839 124.869 107.806C124.906 110.814 124.937 113.817 124.991 116.825C125.018 118.326 125.045 119.828 125.082 121.334C125.1 122.103 125.118 122.872 125.14 123.645C125.149 123.984 125.091 124.419 125.172 124.744C125.276 125.156 125.289 125.106 125.736 125.251C125.772 125.264 125.813 125.273 125.844 125.255C125.876 125.237 125.885 125.201 125.889 125.165C125.957 124.844 125.989 124.532 125.989 124.201C126.034 116.942 126.025 109.692 125.772 102.433C125.767 97.5936 125.23 92.6773 124.63 87.8876ZM115.162 96.0694C111.11 96.0197 107.775 92.2883 107.802 87.8424C107.834 83.3693 111.182 79.7556 115.28 79.7872C119.364 79.8189 122.654 83.4779 122.631 87.969C122.618 92.4104 119.197 96.1192 115.162 96.0694ZM124.436 90.8275C124.432 90.841 124.432 90.841 124.436 90.8275V90.8275Z" fill="black"/>
<path d="M121.083 89.8775C121.954 82.9395 115.474 79.3755 111.078 82.6952C112.121 80.8951 115.808 80.1624 118.281 81.7047C121.056 83.437 122.166 87.3492 121.083 89.8775Z" fill="white"/>
<path d="M124.275 182.409L119.682 183.695L119.492 183.019C119.62 182.896 119.745 182.786 119.868 182.689C119.998 182.578 120.152 182.46 120.329 182.336L119.19 178.262C118.986 177.534 118.724 176.997 118.402 176.651C118.078 176.293 117.65 176.188 117.118 176.337C116.679 176.46 116.338 176.711 116.096 177.091C115.861 177.455 115.731 177.903 115.705 178.434L117.053 183.252C117.251 183.247 117.429 183.259 117.587 183.29C117.754 183.306 117.932 183.343 118.123 183.402L118.312 184.078L113.719 185.363L113.53 184.687C113.776 184.456 114.119 184.211 114.557 183.951L112.782 177.607L111.599 177.788L111.41 177.112C111.541 177.001 111.719 176.882 111.946 176.756C112.169 176.619 112.411 176.483 112.673 176.347C112.945 176.209 113.221 176.082 113.501 175.966C113.788 175.836 114.05 175.725 114.286 175.634L114.876 175.469L115.375 177.255L115.392 177.25C115.499 176.697 115.747 176.179 116.135 175.696C116.52 175.202 117.06 174.858 117.753 174.664C118.204 174.538 118.624 174.483 119.015 174.498C119.402 174.502 119.756 174.608 120.076 174.818C120.408 175.024 120.704 175.346 120.964 175.785C121.232 176.208 121.466 176.778 121.666 177.494L122.826 181.637C123.31 181.589 123.731 181.621 124.086 181.733L124.275 182.409Z" fill="white"/>
<path d="M107.229 179.234C107.091 179.317 106.932 179.449 106.753 179.631C106.574 179.813 106.421 180.101 106.294 180.496L106.637 185.091C106.879 185.097 107.121 185.127 107.366 185.181C107.61 185.223 107.856 185.301 108.106 185.414L108.158 186.114L102.952 186.503L102.9 185.803C103.107 185.667 103.303 185.563 103.49 185.488C103.677 185.414 103.865 185.346 104.053 185.284L103.562 178.714L102.366 178.659L102.314 177.959C102.499 177.861 102.727 177.766 102.997 177.673C103.279 177.58 103.567 177.498 103.863 177.428C104.157 177.346 104.441 177.277 104.714 177.22C104.998 177.163 105.235 177.115 105.425 177.077L106.035 177.031L106.214 179.419L106.285 179.413C106.362 179.143 106.479 178.857 106.637 178.557C106.807 178.255 107.008 177.975 107.242 177.717C107.475 177.459 107.736 177.247 108.025 177.081C108.313 176.915 108.619 176.826 108.943 176.814C109.087 176.972 109.219 177.203 109.338 177.507C109.456 177.799 109.555 178.08 109.636 178.351L109.688 179.051L107.229 179.234Z" fill="white"/>
<path d="M89.3375 181.464C89.4867 180.723 89.6429 180.038 89.8062 179.41C89.9694 178.782 90.1221 178.115 90.2642 177.409L89.128 177.033L89.2666 176.345C89.469 176.312 89.7126 176.288 89.9974 176.272C90.294 176.258 90.594 176.257 90.8976 176.27C91.2035 176.27 91.4954 176.28 91.773 176.299C92.0648 176.309 92.3072 176.321 92.5002 176.335L93.1001 176.456C92.9225 177.338 92.7295 178.205 92.5213 179.057C92.3154 179.897 92.1296 180.728 91.9637 181.552C91.7695 182.517 91.7238 183.23 91.8267 183.691C91.9414 184.155 92.2635 184.44 92.7928 184.547C93.1575 184.62 93.52 184.552 93.8804 184.343C94.2549 184.125 94.6037 183.73 94.9269 183.159L95.8579 178.535L94.7394 178.163L94.8779 177.475C95.0686 177.44 95.3005 177.413 95.5735 177.395C95.8583 177.379 96.1466 177.376 96.4384 177.385C96.7443 177.386 97.042 177.397 97.3314 177.418C97.6232 177.428 97.8774 177.443 98.0939 177.462L98.6938 177.583L97.1267 185.364L98.2629 185.74L98.1385 186.358C97.9596 186.395 97.7395 186.424 97.4783 186.445C97.217 186.466 96.944 186.484 96.6592 186.5C96.3768 186.505 96.0968 186.497 95.8191 186.478C95.5508 186.473 95.3084 186.461 95.0919 186.442L94.492 186.321L94.7913 184.196L94.7208 184.182C94.6122 184.417 94.4554 184.649 94.2503 184.877C94.0477 185.093 93.8015 185.282 93.5118 185.444C93.2362 185.597 92.9207 185.705 92.5653 185.768C92.2098 185.831 91.8321 185.822 91.4322 185.741C90.9851 185.651 90.597 185.512 90.2678 185.323C89.948 185.149 89.693 184.895 89.5028 184.563C89.3126 184.231 89.2002 183.817 89.1655 183.32C89.1333 182.812 89.1906 182.193 89.3375 181.464Z" fill="white"/>
<path d="M81.2016 183.075L75.2539 181.353L75.4441 180.696C75.7013 180.671 75.9874 180.654 76.3022 180.645C76.6319 180.628 76.9533 180.64 77.2664 180.68L80.1095 170.86L78.1039 170.279L76.1414 172.915L75.4325 172.71C75.4531 172.466 75.4921 172.159 75.5495 171.788C75.6068 171.418 75.6732 171.037 75.7488 170.647C75.8243 170.256 75.904 169.873 75.9877 169.498C76.0748 169.111 76.1567 168.785 76.2334 168.52L87.2472 171.708C87.1671 171.985 87.0621 172.304 86.9323 172.666C86.8024 173.029 86.6652 173.395 86.5205 173.765C86.3757 174.136 86.2286 174.493 86.0791 174.837C85.9328 175.169 85.8016 175.45 85.6855 175.678L84.9593 175.468L84.7087 172.191L82.703 171.611L79.8599 181.431C80.1429 181.576 80.4168 181.73 80.6816 181.894C80.9579 182.062 81.1947 182.236 81.3918 182.418L81.2016 183.075Z" fill="white"/>
<path d="M124.294 35.1044C124.134 35.124 123.936 35.1809 123.698 35.2749C123.461 35.369 123.205 35.5708 122.929 35.8805L121.387 40.2228C121.606 40.3257 121.816 40.4513 122.018 40.5994C122.224 40.7363 122.418 40.9071 122.6 41.1118L122.365 41.7733L117.446 40.0264L117.681 39.3649C117.924 39.3241 118.147 39.3075 118.348 39.3153C118.549 39.323 118.748 39.3363 118.945 39.3554L121.15 33.1472L120.078 32.614L120.313 31.9524C120.522 31.9375 120.769 31.9423 121.053 31.9669C121.349 31.9954 121.646 32.0372 121.944 32.0924C122.247 32.1363 122.535 32.1874 122.807 32.2459C123.09 32.3083 123.326 32.3604 123.515 32.402L124.092 32.6068L123.291 34.8628L123.359 34.8869C123.538 34.6702 123.76 34.4563 124.026 34.2452C124.303 34.038 124.601 33.8635 124.919 33.7217C125.236 33.5799 125.561 33.4913 125.892 33.456C126.223 33.4207 126.539 33.4629 126.84 33.5827C126.908 33.7852 126.935 34.0495 126.921 34.3756C126.911 34.6904 126.888 34.9879 126.853 35.2681L126.618 35.9296L124.294 35.1044Z" fill="white"/>
<path d="M112.723 37.6696L107.979 36.1929L108.188 35.5226C108.388 35.4845 108.589 35.4653 108.79 35.4651C108.995 35.4534 109.215 35.4528 109.451 35.4633L111.409 29.173L110.317 28.6824L110.526 28.0122C110.719 27.9969 110.953 27.9942 111.226 28.0039C111.511 28.0172 111.804 28.0455 112.105 28.0888C112.409 28.1207 112.704 28.1623 112.99 28.2135C113.279 28.2533 113.53 28.2938 113.744 28.3351L114.328 28.517L111.926 36.2337C112.137 36.3624 112.323 36.4896 112.485 36.6154C112.651 36.7298 112.8 36.8577 112.931 36.9993L112.723 37.6696ZM112.374 25.0433C112.499 24.6423 112.735 24.37 113.081 24.2264C113.427 24.0829 113.818 24.0789 114.253 24.2144C114.689 24.35 115.008 24.5751 115.212 24.8899C115.416 25.2046 115.455 25.5625 115.33 25.9636C115.209 26.3531 114.975 26.6197 114.629 26.7632C114.282 26.9068 113.892 26.9108 113.456 26.7752C113.021 26.6397 112.701 26.4145 112.498 26.0998C112.294 25.785 112.253 25.4328 112.374 25.0433Z" fill="white"/>
<path d="M104.625 33.6024C104.526 33.8052 104.367 34.0131 104.149 34.2263C103.942 34.4276 103.682 34.6102 103.367 34.7742C103.065 34.9263 102.71 35.0477 102.301 35.1383C101.903 35.2412 101.471 35.2896 101.003 35.2835C100.259 35.2738 99.6002 35.1572 99.027 34.9338C98.4541 34.6983 97.9782 34.3741 97.5996 33.9611C97.2211 33.5362 96.9336 33.0344 96.7371 32.4558C96.5526 31.8773 96.465 31.2281 96.4744 30.5082C96.4943 28.9723 96.9115 27.8076 97.7259 27.0142C98.5403 26.2207 99.6614 25.8332 101.089 25.8518C101.701 25.8598 102.27 25.9512 102.796 26.126C103.334 26.301 103.774 26.5828 104.117 26.9713C104.472 27.3599 104.711 27.8671 104.835 28.4927C104.971 29.1186 104.955 29.8804 104.788 30.7783L99.262 30.7065C99.2617 31.6545 99.4919 32.4136 99.9525 32.9836C100.425 33.5538 101.123 33.8449 102.047 33.8569C102.443 33.8621 102.852 33.8074 103.274 33.6929C103.707 33.5785 104.045 33.4269 104.288 33.238L104.625 33.6024ZM101.004 26.8768C100.764 26.8737 100.547 26.9128 100.354 26.9943C100.173 27.076 100.009 27.2299 99.8624 27.456C99.7276 27.6702 99.6157 27.9688 99.5267 28.3517C99.4378 28.7226 99.3717 29.1957 99.3282 29.7712L102.226 29.8089C102.322 28.8741 102.277 28.1534 102.092 27.647C101.907 27.1405 101.544 26.8838 101.004 26.8768Z" fill="white"/>
<path d="M94.4672 35.4427L89.8927 36.7945L89.6938 36.1213C89.8081 35.9999 89.9298 35.8826 90.059 35.7694C90.1882 35.6561 90.3421 35.5418 90.5208 35.4264L89.4903 31.9395C89.1978 30.9498 88.8858 30.2537 88.5541 29.8512C88.2305 29.4338 87.7926 29.3067 87.2402 29.4699C86.7799 29.606 86.4362 29.8827 86.2092 30.3002C85.9788 30.7061 85.8558 31.1366 85.8401 31.5917L87.2582 36.3906C87.456 36.3822 87.6324 36.3864 87.7875 36.4031C87.9541 36.4164 88.135 36.4568 88.3301 36.5243L88.529 37.1975L83.9546 38.5493L83.7556 37.8761C84.058 37.5866 84.3969 37.3362 84.7725 37.1251L81.6812 26.6644L80.3284 26.914L80.1295 26.2407C80.2817 26.1207 80.48 25.987 80.7242 25.8397C80.98 25.6891 81.2507 25.5465 81.5363 25.4121C81.8185 25.2661 82.1041 25.1316 82.3931 25.0087C82.6787 24.8742 82.9332 24.7615 83.1566 24.6705L83.7435 24.497L85.5442 30.5905L85.5615 30.5854C85.5983 30.2867 85.6806 29.9934 85.8082 29.7054C85.9324 29.4059 86.0899 29.1342 86.2805 28.8901C86.4793 28.6312 86.7072 28.4074 86.9643 28.2188C87.2214 28.0302 87.5111 27.8883 87.8333 27.7931C88.2936 27.6571 88.7191 27.5939 89.1099 27.6035C89.5088 27.5983 89.8698 27.6981 90.1931 27.9028C90.5164 28.1076 90.8111 28.4272 91.0771 28.8616C91.3397 29.2845 91.5764 29.8527 91.7873 30.5662L93.0065 34.6919C93.2157 34.6801 93.4267 34.6741 93.6393 34.6738C93.852 34.6735 94.0616 34.7054 94.2682 34.7695L94.4672 35.4427Z" fill="white"/>
<path d="M78.7279 41.0416L73.1179 43.6624L72.8284 43.0427C73.0052 42.8541 73.2092 42.6529 73.4404 42.4389C73.6774 42.209 73.927 42.0063 74.1894 41.8307L69.8619 32.5677L67.9702 33.4515L68.2293 36.7278L67.5606 37.0401C67.4156 36.843 67.2426 36.5861 67.0416 36.2694C66.8407 35.9527 66.6401 35.6225 66.4399 35.279C66.2396 34.9354 66.0474 34.5948 65.8631 34.257C65.6738 33.9084 65.5207 33.6091 65.4038 33.359L75.7921 28.5059C75.914 28.7668 76.0454 29.0763 76.1862 29.4344C76.3269 29.7925 76.4648 30.1585 76.5998 30.5325C76.7348 30.9065 76.8593 31.2722 76.9733 31.6296C77.0822 31.9761 77.1682 32.2736 77.2314 32.5222L76.5464 32.8422L74.1999 30.5411L72.3082 31.4249L76.6356 40.6879C76.9437 40.6102 77.2514 40.5459 77.5587 40.4951C77.877 40.4391 78.1702 40.4147 78.4384 40.4218L78.7279 41.0416Z" fill="white"/>
<defs>
<linearGradient id="paint0_linear" x1="94.0059" y1="107.002" x2="158.523" y2="144.168" gradientUnits="userSpaceOnUse">
<stop stop-color="#E1306C"/>
<stop offset="0.3727" stop-color="#405DE6"/>
</linearGradient>
<linearGradient id="paint1_linear" x1="68.8204" y1="96.7081" x2="76.9663" y2="96.7081" gradientUnits="userSpaceOnUse">
<stop stop-color="#E1306C"/>
<stop offset="0.0588" stop-color="#D53375"/>
<stop offset="0.6065" stop-color="#6A51C6"/>
<stop offset="0.8503" stop-color="#405DE6"/>
</linearGradient>
</defs>
</svg>
